<svg width="16" height="16" viewBox="0 0 16 16" fill="none" xmlns="http://www.w3.org/2000/svg">
<g clip-path="url(#clip0_365_3393)">
<path fill-rule="evenodd" clip-rule="evenodd" d="M7.99996 1.99935C4.68625 1.99935 1.99996 4.68564 1.99996 7.99935C1.99996 11.3131 4.68625 13.9993 7.99996 13.9993C11.3137 13.9993 14 11.3131 14 7.99935C14 4.68564 11.3137 1.99935 7.99996 1.99935ZM0.666626 7.99935C0.666626 3.94926 3.94987 0.666016 7.99996 0.666016C12.05 0.666016 15.3333 3.94926 15.3333 7.99935C15.3333 12.0494 12.05 15.3327 7.99996 15.3327C3.94987 15.3327 0.666626 12.0494 0.666626 7.99935Z" fill="#00A3C5"/>
<path fill-rule="evenodd" clip-rule="evenodd" d="M8.00004 4.66602C8.36823 4.66602 8.66671 4.96449 8.66671 5.33268V10.666C8.66671 11.0342 8.36823 11.3327 8.00004 11.3327C7.63185 11.3327 7.33337 11.0342 7.33337 10.666V5.33268C7.33337 4.96449 7.63185 4.66602 8.00004 4.66602Z" fill="#00A3C5"/>
<path fill-rule="evenodd" clip-rule="evenodd" d="M4.66663 8.00065C4.66663 7.63246 4.9651 7.33398 5.33329 7.33398H10.6666C11.0348 7.33398 11.3333 7.63246 11.3333 8.00065C11.3333 8.36884 11.0348 8.66732 10.6666 8.66732H5.33329C4.9651 8.66732 4.66663 8.36884 4.66663 8.00065Z" fill="#00A3C5"/>
</g>
<defs>
<clipPath id="clip0_365_3393">
<rect width="16" height="16" fill="white"/>
</clipPath>
</defs>
</svg>
